<mxfile host="app.diagrams.net" modified="2023-12-06T07:41:35.486Z" agent="Mozilla/5.0 (Macintosh; Intel Mac OS X 10_15_7) AppleWebKit/537.36 (KHTML, like Gecko) Chrome/118.0.0.0 Safari/537.36" version="22.1.5" etag="MgGXDpPdWMRE9NfdxIM_" type="github">
  <diagram name="Side-1" id="TD3Am4EvwB6N-XfnYE4y">
    <mxGraphModel>
      <root>
        <mxCell id="0" />
        <mxCell id="1" parent="0" />
      </root>
    </mxGraphModel>
  </diagram>
</mxfile>
